<svg width="480" height="310" viewBox="0 0 480 310" fill="none" xmlns="http://www.w3.org/2000/svg">
<rect width="480" height="310" fill="#E5E5E5"/>
<g clip-path="url(#clip0)">
<path fill-rule="evenodd" clip-rule="evenodd" d="M134.343 203.032L134.465 203.08L159.52 214.91C159.814 215.049 160.014 215.327 160.054 215.645L160.062 215.765V219.225C160.062 219.618 160.305 219.966 160.664 220.106L160.775 220.142L181.345 225.364C181.512 225.406 181.664 225.493 181.784 225.615L181.868 225.712L183.067 227.303C183.276 227.582 183.314 227.95 183.173 228.261L183.112 228.375L176.037 239.652C175.966 239.765 175.92 239.891 175.901 240.022L175.892 240.155V249.669C175.892 250.01 175.709 250.321 175.419 250.488L175.305 250.544L167.713 253.659C167.591 253.709 167.48 253.784 167.389 253.88L167.305 253.981L156.236 269.36L156.219 269.385L156.202 269.41L142.606 291.13L142.558 291.216L142.52 291.306L139.118 300.583C139.059 300.744 139.045 300.917 139.077 301.084L139.109 301.208L140.928 306.659C140.987 306.834 140.993 307.022 140.946 307.198L140.902 307.329L140.148 309.101C140.124 309.158 140.095 309.211 140.06 309.262C139.79 309.661 139.268 309.788 138.849 309.575L138.747 309.514L130.416 303.866C130.178 303.705 130.028 303.446 130.004 303.164L130.002 303.041L130.774 285.512L130.779 285.448L130.789 285.384L137.827 246.642C137.879 246.356 137.796 246.063 137.606 245.848L137.518 245.761L128.006 237.449C127.925 237.378 127.856 237.293 127.804 237.2L127.756 237.103L122.24 223.975C122.128 223.709 122.145 223.408 122.28 223.158L122.345 223.054L126.561 217.218C126.699 217.026 126.76 216.791 126.734 216.559L126.714 216.443L125.573 211.691C125.505 211.41 125.57 211.116 125.744 210.891L125.825 210.799L133.394 203.265C133.645 203.015 134.012 202.929 134.343 203.032ZM461.495 266.219L461.605 266.227L462.382 266.329C462.813 266.386 463.145 266.728 463.197 267.15L463.204 267.267V268.688C463.204 269.155 463.544 269.545 463.994 269.62L464.108 269.633L464.978 269.671C465.126 269.678 465.27 269.719 465.399 269.791L465.492 269.851L468.161 271.787C468.215 271.826 468.265 271.872 468.31 271.922C468.632 272.281 468.628 272.818 468.32 273.173L468.236 273.257L465.351 275.841L465.268 275.925L465.196 276.02L460.816 282.576L460.76 282.651L460.698 282.72L455.757 287.657C455.522 287.891 455.185 287.984 454.868 287.908L454.751 287.872L452.515 287.019C452.405 286.976 452.303 286.914 452.216 286.834C451.859 286.51 451.807 285.975 452.078 285.591L452.153 285.498L458.083 278.981L458.128 278.928L458.169 278.871L462.188 272.879C462.334 272.662 462.382 272.396 462.326 272.145L462.289 272.02L460.596 267.496C460.541 267.351 460.524 267.195 460.544 267.041C460.602 266.597 460.96 266.266 461.387 266.223L461.495 266.219ZM426.419 276.758C426.942 276.758 427.365 277.181 427.365 277.703V278.806C427.365 279.024 427.29 279.236 427.151 279.405L425.912 280.919C425.622 281.272 425.122 281.368 424.722 281.147L423.765 280.618C423.526 280.486 423.356 280.257 423.298 279.991L422.844 277.905C422.733 277.394 423.057 276.89 423.567 276.779C423.633 276.765 423.701 276.758 423.768 276.758H426.419ZM411.083 232.722C411.605 232.696 412.049 233.097 412.076 233.619C412.087 233.839 412.021 234.056 411.889 234.233L411.006 235.416C410.693 235.835 410.779 236.428 411.198 236.74C411.226 236.762 411.256 236.781 411.287 236.799L415.186 239.075C415.637 239.338 416.216 239.186 416.48 238.735C416.502 238.697 416.521 238.658 416.537 238.618L418.289 234.366C418.488 233.883 419.041 233.653 419.524 233.852C419.713 233.929 419.872 234.066 419.976 234.242L422.996 239.306C423.084 239.453 423.13 239.62 423.13 239.791V242.706C423.13 242.915 423.199 243.117 423.326 243.282L431.85 254.388C432.03 254.623 432.09 254.928 432.012 255.214L427.442 271.886C427.329 272.297 426.956 272.582 426.53 272.582H420.477C420.199 272.582 419.935 272.46 419.756 272.248L413.285 264.615C413.161 264.468 412.995 264.363 412.809 264.313L403.82 261.903C403.632 261.852 403.432 261.861 403.249 261.929L391.733 266.172C391.647 266.204 391.555 266.223 391.463 266.228L385.634 266.576C385.129 266.606 384.689 266.233 384.637 265.729L384.003 259.561C383.99 259.435 383.952 259.313 383.891 259.201L381.563 254.973C381.487 254.834 381.446 254.677 381.446 254.517V248.737C381.446 248.371 381.658 248.037 381.989 247.881L388.802 244.676C388.882 244.638 388.958 244.589 389.025 244.529L397.381 237.157C397.61 236.955 397.921 236.876 398.218 236.944L401.52 237.701C401.84 237.774 402.175 237.676 402.405 237.442L406.58 233.202C406.746 233.033 406.969 232.933 407.205 232.921L411.083 232.722ZM367.413 48.6847L367.515 48.7561L379.755 58.564C380.049 58.7998 380.172 59.1845 380.078 59.5419L380.039 59.6597L377.897 64.9059C377.719 65.3422 377.89 65.8363 378.284 66.0735L378.387 66.1272L387.493 70.1923C387.81 70.3338 388.175 70.2892 388.447 70.0843L388.544 70.0001L390.955 67.6091C391.184 67.3814 391.512 67.2886 391.822 67.3563L391.938 67.3893L399.562 70.0987C399.598 70.1115 399.634 70.1265 399.668 70.1436C400.099 70.359 400.294 70.8595 400.138 71.3029L400.092 71.4124L398.376 74.8499C398.311 74.9811 398.277 75.1257 398.277 75.2723C398.277 75.7574 398.642 76.1572 399.112 76.2118L399.223 76.2182H411.322C411.682 76.2182 412.006 76.0148 412.166 75.6999L412.213 75.591L413.727 71.3588C413.728 71.3549 413.73 71.351 413.731 71.3471C413.9 70.8926 414.382 70.6455 414.842 70.7585L414.948 70.7911L429.451 76.1964L429.511 76.2162L429.571 76.2321L439.422 78.4858C439.812 78.5753 440.1 78.8996 440.149 79.2892L440.156 79.4079V82.4959C440.156 82.8856 440.395 83.231 440.749 83.3734L440.859 83.4099L450.998 86.1093C451.118 86.1412 451.242 86.1491 451.364 86.1332L451.485 86.1092L461.859 83.3438C462.104 83.2785 462.363 83.3145 462.579 83.4404L462.683 83.5107L479.135 96.29C479.499 96.5729 479.602 97.0716 479.396 97.4709L479.332 97.577L477.171 100.684L477.138 100.729C476.84 101.108 476.31 101.197 475.907 100.955L475.81 100.887L471.435 97.4446L471.41 97.426C471.022 97.1403 470.487 97.1951 470.164 97.5362L470.088 97.6274L467.417 101.258C467.321 101.388 467.261 101.539 467.241 101.698L467.233 101.818V106.528C467.233 106.781 467.132 107.021 466.956 107.197L466.861 107.28L457.417 114.496C457.082 114.752 456.622 114.753 456.289 114.511L456.192 114.431L454.025 112.381C453.991 112.349 453.955 112.319 453.917 112.293C453.522 112.016 452.989 112.084 452.674 112.433L452.6 112.526L447.745 119.473C447.656 119.6 447.6 119.747 447.581 119.899L447.574 120.015V125.172C447.574 125.35 447.524 125.524 447.431 125.673L447.353 125.78L439.625 134.983C439.445 135.197 439.18 135.321 438.901 135.321C438.416 135.321 438.016 134.955 437.961 134.485L437.955 134.375V125.909C437.955 125.775 437.983 125.644 438.037 125.524L438.099 125.407L447.314 110.694C447.454 110.471 447.493 110.201 447.427 109.95L447.385 109.827L446.608 107.967C446.595 107.936 446.581 107.905 446.565 107.876C446.332 107.453 445.825 107.278 445.388 107.452L445.28 107.502L432.029 114.781C431.832 114.889 431.605 114.923 431.388 114.88L431.259 114.844L422.776 111.855C422.429 111.732 422.046 111.824 421.792 112.08L421.712 112.171L410.748 126.456C410.481 126.804 410.491 127.284 410.757 127.619L410.836 127.707L416.802 133.568C417.021 133.783 417.12 134.089 417.073 134.388L417.044 134.515L412.283 150.341C412.276 150.365 412.268 150.388 412.259 150.411C412.084 150.863 411.599 151.104 411.14 150.985L411.035 150.951L407.915 149.741C407.647 149.638 407.349 149.662 407.104 149.802L407.002 149.869L399.098 155.856C398.825 156.062 398.688 156.397 398.73 156.729L398.754 156.853L400.419 163.125C400.501 163.432 400.422 163.757 400.215 163.992L400.132 164.076L398.539 165.486C398.497 165.522 398.452 165.555 398.405 165.584C397.994 165.836 397.466 165.736 397.173 165.368L397.105 165.271L392.154 157.176C392.13 157.136 392.103 157.098 392.073 157.062C391.764 156.692 391.232 156.619 390.836 156.873L390.741 156.943L386.394 160.579C386.101 160.824 385.987 161.217 386.094 161.576L386.138 161.694L391.152 172.805C391.274 173.074 391.262 173.383 391.125 173.639L391.058 173.746L382.999 184.963C382.86 185.156 382.655 185.289 382.425 185.337L382.309 185.354L372.193 186.19C372.028 186.204 371.869 186.261 371.733 186.354L371.636 186.432L368.768 189.03C368.504 189.27 368.399 189.634 368.488 189.971L368.53 190.096L372.644 199.936C372.793 200.293 372.708 200.701 372.44 200.969L372.344 201.053L369.859 202.944C369.53 203.195 369.082 203.2 368.749 202.971L368.653 202.895L360.673 195.714C360.595 195.644 360.505 195.587 360.409 195.546L360.31 195.511L354.712 193.848C354.347 193.739 354.087 193.424 354.042 193.054L354.036 192.941V190.026C354.036 189.85 353.986 189.677 353.894 189.529L353.817 189.422L350.502 185.431C350.218 185.09 349.74 184.995 349.352 185.189L349.249 185.249L335.617 194.359C335.444 194.475 335.314 194.644 335.248 194.839L335.215 194.959L333.825 201.891C333.773 202.151 333.614 202.376 333.39 202.512L333.29 202.565L330.502 203.835C330.494 203.839 330.486 203.843 330.477 203.846C330.033 204.033 329.526 203.855 329.291 203.448L329.238 203.341L326.323 196.415C326.279 196.312 326.255 196.202 326.25 196.091L326.251 195.979L326.95 186.436C326.954 186.383 326.954 186.329 326.949 186.276C326.902 185.793 326.5 185.43 326.027 185.421L325.916 185.425L321.729 185.829C321.491 185.852 321.256 185.785 321.068 185.643L320.978 185.566L317.956 182.627C317.877 182.55 317.784 182.488 317.684 182.443L317.581 182.403L299.448 176.69C299.367 176.664 299.29 176.628 299.218 176.581L299.116 176.505L296.182 173.985C295.996 173.825 295.758 173.745 295.516 173.758L295.396 173.772L293.004 174.209C292.914 174.225 292.828 174.254 292.747 174.295C292.316 174.513 292.124 175.015 292.283 175.457L292.33 175.566L295.573 181.975C295.718 182.262 295.997 182.453 296.312 182.488L296.431 182.494L302.244 182.406C302.418 182.404 302.589 182.45 302.738 182.537L302.846 182.611L306.599 185.588C306.615 185.601 306.631 185.615 306.647 185.629C307.004 185.953 307.056 186.488 306.786 186.872L306.711 186.965L299.467 194.942C299.361 195.059 299.228 195.147 299.08 195.199L298.967 195.231L286.921 197.836C286.541 197.918 286.154 197.759 285.939 197.444L285.88 197.345L274.927 176.074C274.762 175.753 274.43 175.557 274.076 175.561L273.957 175.57L272.845 175.723C272.748 175.737 272.653 175.765 272.564 175.808C272.129 176.017 271.927 176.515 272.077 176.96L272.122 177.07L283.963 201.678C284.067 201.895 284.249 202.062 284.471 202.149L284.584 202.185L293.309 204.383C293.414 204.409 293.513 204.454 293.603 204.514C294.004 204.782 294.135 205.303 293.924 205.723L293.864 205.826L288.782 213.433C288.747 213.484 288.708 213.531 288.665 213.575L288.596 213.637L278.511 221.945C278.202 222.199 278.09 222.616 278.219 222.986L278.265 223.095L280.46 227.522C280.492 227.587 280.517 227.656 280.533 227.726L280.552 227.833L281.637 237.23C281.671 237.522 281.566 237.811 281.359 238.014L281.264 238.096L273.548 243.871C273.318 244.042 273.181 244.308 273.169 244.59L273.172 244.712L273.435 247.655C273.449 247.81 273.424 247.965 273.364 248.107L273.313 248.211L265.703 261.439C265.581 261.65 265.384 261.804 265.154 261.873L265.037 261.9L255.274 263.51C254.868 263.577 254.47 263.374 254.282 263.016L254.237 262.915L245.201 239.32C245.155 239.201 245.134 239.073 245.139 238.946L245.153 238.818L246.791 229.496C246.822 229.318 246.801 229.135 246.733 228.97L246.672 228.849L241.566 220.256C241.488 220.125 241.443 219.976 241.435 219.825L241.436 219.71L241.704 215.687C241.718 215.478 241.662 215.271 241.547 215.099L241.471 215L235.515 208.228C235.35 208.04 235.118 207.926 234.871 207.909L234.747 207.909L216.331 209.051C216.065 209.068 215.806 208.971 215.617 208.789L215.54 208.705L205.793 196.767C205.646 196.587 205.571 196.36 205.581 196.13L205.592 196.016L207.633 183.583C207.658 183.435 207.717 183.296 207.805 183.176L207.876 183.09L213.824 176.727C214.004 176.535 214.094 176.279 214.077 176.021L214.06 175.891L213.212 171.751C213.18 171.598 213.187 171.441 213.231 171.292L213.271 171.183L215.349 166.427C215.49 166.104 215.798 165.889 216.143 165.863L216.259 165.861L224.416 166.231L224.463 166.232L224.511 166.231L241.538 165.296L241.59 165.295C242.075 165.295 242.474 165.66 242.529 166.13L242.535 166.241V168.825C242.535 169.07 242.631 169.304 242.798 169.479L242.887 169.561L248.151 173.807C248.31 173.935 248.504 174.007 248.705 174.016L248.827 174.013L254.514 173.521C254.885 173.489 255.199 173.242 255.322 172.899L255.356 172.78L255.63 171.529C255.722 171.11 256.081 170.81 256.5 170.787L256.616 170.787L273.382 171.885C273.696 171.905 273.997 171.768 274.188 171.525L274.254 171.429L276.029 168.481C276.118 168.333 276.165 168.163 276.165 167.991L276.155 167.862L275.827 165.51C275.767 165.082 275.426 164.754 275.006 164.702L274.89 164.695H266.986C266.71 164.695 266.45 164.575 266.272 164.37L266.201 164.277L264.219 161.326C263.976 160.964 264.013 160.489 264.297 160.17L264.381 160.088L267.535 157.324C267.629 157.242 267.737 157.179 267.854 157.14L267.974 157.107L276.146 155.479C276.302 155.448 276.462 155.456 276.613 155.503L276.724 155.546L281.558 157.75C281.931 157.92 282.366 157.829 282.641 157.536L282.718 157.443L283.77 155.982C283.782 155.966 283.793 155.95 283.803 155.933C284.06 155.525 283.967 154.996 283.603 154.698L283.507 154.629L277.285 150.711C276.931 150.488 276.769 150.063 276.875 149.667L276.91 149.56L277.409 148.31C277.454 148.196 277.477 148.074 277.476 147.951C277.472 147.466 277.104 147.07 276.633 147.019L276.522 147.014L268.564 147.082C268.224 147.085 267.915 147.27 267.75 147.56L267.695 147.674L264.294 156.099C264.156 156.44 263.835 156.667 263.474 156.689L263.353 156.689L261.005 156.53C260.906 156.523 260.807 156.532 260.71 156.556C260.24 156.675 259.941 157.126 260.003 157.596L260.024 157.705L260.73 160.513C260.793 160.761 260.752 161.022 260.621 161.237L260.547 161.34L259.516 162.61C259.489 162.643 259.461 162.673 259.43 162.702C259.079 163.033 258.542 163.043 258.179 162.743L258.093 162.662L254.744 159.102C254.684 159.039 254.634 158.968 254.594 158.891L254.542 158.773L252.68 153.564C252.631 153.428 252.552 153.305 252.45 153.205L252.368 153.134L246.767 148.801C246.491 148.587 246.122 148.545 245.808 148.683L245.693 148.743L244.662 149.376C244.588 149.422 244.521 149.477 244.462 149.541C244.135 149.895 244.13 150.432 244.433 150.791L244.515 150.877L251.768 157.574C251.919 157.713 252.019 157.897 252.056 158.097L252.071 158.219L252.133 159.397L252.134 159.409C252.153 159.894 251.804 160.308 251.336 160.381L251.226 160.392L247.817 160.528C247.558 160.538 247.308 160.442 247.123 160.264L247.037 160.169L240.011 151.265C239.804 151.003 239.477 150.872 239.152 150.913L239.03 150.936L231.538 152.885C231.295 152.948 231.089 153.105 230.963 153.318L230.907 153.429L227.805 160.697C227.727 160.88 227.593 161.033 227.424 161.135L227.319 161.19L221.96 163.569C221.819 163.631 221.666 163.658 221.513 163.648L221.399 163.634L216.18 162.639C215.771 162.561 215.465 162.227 215.417 161.822L215.411 161.71V155.308C215.411 154.854 215.732 154.47 216.167 154.381L216.278 154.365L222.43 153.853C222.687 153.832 222.922 153.707 223.083 153.511L223.157 153.407L225.977 148.832C226.107 148.621 226.148 148.369 226.095 148.131L226.06 148.013L224.032 142.436C223.918 142.124 223.977 141.778 224.181 141.523L224.264 141.432L234.736 131.335C234.801 131.273 234.856 131.202 234.901 131.124L234.959 131.004L237.342 125.01C237.446 124.75 237.657 124.552 237.918 124.464L238.033 124.433L239.427 124.15C239.449 124.145 239.472 124.141 239.495 124.138C239.976 124.077 240.419 124.388 240.533 124.848L240.553 124.956L241.286 130.678C241.29 130.702 241.294 130.726 241.298 130.749C241.397 131.224 241.835 131.542 242.307 131.5L242.416 131.484L254.753 128.93C254.925 128.894 255.082 128.812 255.209 128.693L255.298 128.597L261.96 120.333C262.221 120.009 262.237 119.557 262.012 119.218L261.938 119.119L258.511 115.17C258.432 115.079 258.371 114.974 258.332 114.861L258.299 114.745L257.102 109.064C257.048 108.809 257.102 108.545 257.247 108.334L257.327 108.232L262.769 102.247L262.803 102.208C263.107 101.834 263.078 101.297 262.753 100.958L262.666 100.877L260.729 99.3016C260.377 99.0153 259.877 99.022 259.534 99.302L259.445 99.3851L251.006 108.301C250.86 108.455 250.771 108.653 250.751 108.862L250.748 108.988L251.143 119.181C251.154 119.472 251.031 119.749 250.813 119.936L250.714 120.01L247.149 122.335C247.076 122.382 246.998 122.419 246.916 122.445C246.454 122.591 245.963 122.363 245.769 121.931L245.73 121.827L243.96 116.213C243.931 116.121 243.888 116.035 243.833 115.956C243.557 115.561 243.034 115.441 242.618 115.66L242.516 115.722L238.084 118.815C237.956 118.904 237.809 118.96 237.655 118.978C237.173 119.036 236.733 118.721 236.623 118.26L236.603 118.152L235.705 110.653C235.681 110.453 235.722 110.251 235.82 110.077L235.885 109.976L255.645 83.4365C255.723 83.3317 255.822 83.2446 255.934 83.1803L256.051 83.1236L266.633 78.8737C266.931 78.7541 267.266 78.7944 267.525 78.9744L267.619 79.0484L281.797 91.8111C282.089 92.0734 282.185 92.4845 282.051 92.8439L281.998 92.9615L280.203 96.304C280.047 96.5944 279.753 96.78 279.43 96.8005L279.307 96.8004L274.095 96.4567C273.879 96.4424 273.664 96.5029 273.487 96.6281C273.093 96.9064 272.976 97.4307 273.198 97.8453L273.26 97.9464L276.92 103.125C277.179 103.491 277.654 103.621 278.058 103.452L278.166 103.398L285.813 98.9786C286.029 98.8538 286.186 98.6496 286.251 98.4123L286.277 98.2911L287.391 90.3472C287.436 90.0297 287.637 89.7593 287.922 89.6241L288.033 89.5799L307.122 83.3113C307.262 83.2652 307.411 83.2528 307.556 83.2744L307.664 83.2971L316.437 85.6759C316.636 85.7299 316.847 85.7173 317.038 85.6401C317.488 85.4585 317.722 84.9703 317.597 84.5136L317.562 84.4089L316.387 81.5001C316.31 81.3091 316.298 81.0993 316.35 80.9024L316.39 80.786L320.228 71.4585C320.245 71.419 320.264 71.3806 320.285 71.3436C320.527 70.9266 321.039 70.7636 321.472 70.9473L321.578 71.0005L329.728 75.7322C329.734 75.7359 329.741 75.7394 329.747 75.7429C330.17 75.9754 330.692 75.851 330.968 75.4705L331.032 75.3701L334.713 68.6783C334.747 68.6176 334.787 68.5608 334.832 68.509L334.905 68.4351L349.14 55.4651C349.234 55.3789 349.345 55.3131 349.465 55.2712L349.588 55.2374L359.93 53.1302C360.014 53.1129 360.096 53.0843 360.172 53.0452L360.282 52.9788L366.382 48.7187C366.692 48.5024 367.096 48.4931 367.413 48.6847ZM292.889 235.579L292.97 235.666L294.661 237.72C294.833 237.93 294.906 238.202 294.865 238.466L294.84 238.579L291.65 249.835C291.578 250.088 291.405 250.297 291.175 250.417L291.074 250.462L285.673 252.5C285.621 252.52 285.567 252.535 285.512 252.545C285.035 252.633 284.575 252.347 284.436 251.894L284.409 251.787L283.697 247.937C283.67 247.79 283.678 247.639 283.72 247.497L283.758 247.392L285.136 244.18C285.183 244.071 285.209 243.954 285.212 243.835L285.208 243.717L284.91 240.624C284.881 240.316 285.004 240.015 285.235 239.816L285.326 239.747L291.715 235.481C292.085 235.233 292.572 235.28 292.889 235.579ZM405.25 216.563L405.364 216.571L408.16 216.946C408.413 216.98 408.639 217.114 408.79 217.315L408.859 217.421L409.821 219.134C410.018 219.485 410.412 219.669 410.801 219.604L410.917 219.577L416.651 217.857C416.863 217.794 417.089 217.807 417.291 217.892L417.408 217.952L426.432 223.353C426.588 223.446 426.712 223.581 426.792 223.742L426.844 223.867L428.663 229.35C428.711 229.494 428.723 229.648 428.699 229.799C428.622 230.277 428.198 230.614 427.725 230.593L427.615 230.582L419.724 229.308L419.673 229.298L419.623 229.286L414.531 227.879C414.158 227.776 413.889 227.458 413.844 227.082L413.837 226.967V224.262C413.837 223.889 413.617 223.554 413.284 223.402L413.169 223.358L407.002 221.458C406.878 221.42 406.764 221.357 406.666 221.273L406.573 221.183L404.137 218.442C404.133 218.437 404.129 218.432 404.125 218.427C403.82 218.069 403.836 217.545 404.145 217.207L404.229 217.126L404.625 216.789C404.771 216.664 404.95 216.588 405.137 216.568L405.25 216.563ZM360.071 201.869L360.133 201.961L365.984 212.018L366.002 212.05L366.019 212.083L370.466 221.302C370.552 221.48 370.691 221.625 370.862 221.719L370.968 221.77L383.878 226.909C384.066 226.984 384.225 227.117 384.332 227.289C384.586 227.699 384.489 228.227 384.124 228.523L384.027 228.591L382.666 229.436C382.492 229.543 382.289 229.591 382.088 229.574L381.967 229.557L367.338 226.398C367.139 226.354 366.96 226.248 366.827 226.097L366.752 226L356.707 211.032C356.541 210.785 356.503 210.475 356.598 210.197L356.648 210.081L356.989 209.401C356.998 209.384 357.006 209.368 357.016 209.352C357.257 208.934 357.769 208.771 358.202 208.954L358.308 209.007L359.643 209.78C359.872 209.912 360.15 209.927 360.392 209.819C360.772 209.649 360.96 209.225 360.846 208.836L360.807 208.731L358.33 203.194C358.192 202.886 358.23 202.531 358.422 202.261L358.501 202.163L358.826 201.815C358.881 201.756 358.944 201.705 359.014 201.665C359.372 201.456 359.823 201.55 360.071 201.869ZM383.235 208.242L383.358 208.266L386.109 208.992C386.486 209.092 386.76 209.411 386.806 209.791L386.813 209.907V216.29C386.813 216.437 386.779 216.58 386.715 216.71L386.661 216.805L383.715 221.344C383.528 221.633 383.2 221.795 382.862 221.773L382.736 221.757L376.305 220.467C376.074 220.42 375.869 220.289 375.731 220.101L375.667 220.003L372.954 215.177C372.722 214.763 372.833 214.248 373.2 213.965L373.296 213.9L382.635 208.367C382.816 208.259 383.028 208.216 383.235 208.242ZM13.7555 84.2619L13.8748 84.2999L40.2314 94.65C40.4767 94.7464 40.7491 94.7353 40.9837 94.6236L41.0975 94.5594L51.2867 87.8461C51.4299 87.7517 51.5953 87.6985 51.7651 87.691L51.8929 87.6939L62.3332 88.6442C62.569 88.6657 62.7866 88.7746 62.9447 88.947L63.0186 89.0385L68.9927 97.4491C69.127 97.6382 69.3252 97.7702 69.5485 97.8224L69.662 97.8418L93.0429 100.373C93.3243 100.404 93.6024 100.307 93.8028 100.112L93.8837 100.023L98.2635 94.5418C98.4905 94.2577 98.5323 93.8726 98.3812 93.5503L98.3155 93.4327L95.3961 88.9801C95.2958 88.8272 95.2425 88.6494 95.2412 88.4684L95.25 88.3325L95.6423 85.4828C95.6587 85.3641 95.6975 85.2495 95.7566 85.1452C95.9945 84.7258 96.5047 84.5576 96.9392 84.7369L97.046 84.789L112.171 93.367C112.43 93.514 112.603 93.773 112.642 94.0635L112.65 94.1898V101.396C112.65 101.631 112.563 101.855 112.409 102.028L112.326 102.109L106.762 106.953L106.685 107.028L106.617 107.112L96.3771 121.244C96.098 121.629 96.1509 122.155 96.4843 122.478L96.5735 122.554L110.312 132.915C110.44 133.011 110.54 133.138 110.605 133.283L110.647 133.394L112.028 137.922C112.107 138.18 112.292 138.391 112.533 138.503L112.64 138.545L115.67 139.53C116.122 139.677 116.606 139.465 116.811 139.049L116.856 138.941L118.485 134.259C118.508 134.193 118.524 134.124 118.532 134.054L118.538 133.949V128.164C118.538 128.103 118.532 128.042 118.52 127.982L118.498 127.893L116 119.538C115.968 119.432 115.955 119.322 115.962 119.212L115.974 119.103L116.33 117.083C116.346 116.99 116.376 116.9 116.419 116.816C116.638 116.387 117.141 116.197 117.583 116.357L117.692 116.404L128.566 121.962L128.63 121.998L128.69 122.038L132.474 124.777C132.84 125.042 133.336 125.008 133.663 124.712L133.748 124.624L136.565 121.323C136.719 121.143 136.934 121.028 137.167 120.998L137.284 120.991H139.896C140.218 120.991 140.515 121.154 140.688 121.419L140.747 121.523L148.253 136.967L148.274 137.014L148.293 137.062L149.136 139.422L149.147 139.456C149.293 139.919 149.065 140.41 148.633 140.603L148.529 140.642L134.331 145.116C134.131 145.18 133.957 145.308 133.837 145.481C133.563 145.878 133.634 146.41 133.984 146.723L134.078 146.797L141.028 151.599C141.193 151.713 141.317 151.877 141.383 152.065L141.415 152.18L141.778 153.886C141.785 153.921 141.791 153.957 141.794 153.994C141.84 154.477 141.513 154.909 141.05 155.007L140.941 155.024L131.6 155.901C131.284 155.931 131.006 156.117 130.857 156.392L130.807 156.499L129.298 160.363C129.195 160.625 128.982 160.826 128.719 160.915L128.603 160.946L123.831 161.906C123.45 161.983 123.159 162.283 123.088 162.658L123.074 162.772L122.512 171.478C122.496 171.731 122.379 171.965 122.191 172.129L122.091 172.205L113.408 177.958C113.017 178.217 112.879 178.718 113.067 179.135L113.121 179.237L117.344 186.205C117.488 186.444 117.519 186.732 117.433 186.993L117.389 187.103L116.588 188.782C116.526 188.912 116.435 189.026 116.322 189.116C115.944 189.415 115.408 189.38 115.073 189.051L114.993 188.962L109.92 182.562C109.84 182.46 109.739 182.376 109.625 182.315L109.507 182.262L100.656 178.991C100.372 178.886 100.057 178.925 99.8077 179.089L99.7052 179.167L93.0927 184.956C92.9014 185.124 92.7869 185.36 92.7716 185.611L92.7724 185.737L93.4637 195.253C93.4712 195.356 93.4956 195.458 93.5361 195.553C93.7242 195.997 94.2117 196.223 94.6639 196.095L94.7761 196.055L102.122 192.943C102.277 192.877 102.445 192.854 102.61 192.875L102.733 192.899L104.82 193.451C104.834 193.454 104.847 193.458 104.86 193.462C105.323 193.606 105.596 194.074 105.508 194.539L105.482 194.646L104.182 198.817C104.171 198.852 104.162 198.888 104.155 198.924C104.066 199.401 104.351 199.861 104.804 200.002L104.911 200.028L110.167 201.013C110.514 201.078 110.792 201.329 110.895 201.66L110.923 201.773L112.112 208.268C112.143 208.437 112.127 208.609 112.068 208.768L112.016 208.884L111.254 210.309C111.023 210.737 110.516 210.915 110.078 210.745L109.97 210.695L87.5218 198.552C87.4683 198.523 87.4178 198.489 87.371 198.45L87.3035 198.389L63.3334 174.452C63.2563 174.375 63.1933 174.285 63.1469 174.187L63.1062 174.087L58.7532 161.268C58.7051 161.126 58.6914 160.975 58.7128 160.828L58.7353 160.719L61.0102 152.238C61.0722 152.007 61.044 151.762 60.9339 151.553L60.8722 151.451L44.6769 128.258C44.5923 128.137 44.4809 128.038 44.3519 127.968L44.2519 127.921L25.0089 120.242C24.7788 120.15 24.5235 120.153 24.2974 120.246L24.1871 120.301L15.9533 125.032C15.7097 125.172 15.4185 125.195 15.1582 125.101L15.0488 125.053L2.24385 118.455C2.11252 118.387 1.99887 118.29 1.912 118.17C1.62845 117.78 1.68633 117.246 2.02925 116.925L2.12089 116.849L7.67436 112.812C7.88859 112.656 8.02628 112.419 8.05735 112.159L8.06405 112.047V110.3C8.06405 109.814 7.6989 109.415 7.22848 109.36L7.11817 109.354H1.65749C1.24297 109.354 0.881588 109.085 0.757201 108.698L0.729291 108.59L0.0176829 104.961C0.0023011 104.883 -0.00307841 104.803 0.00167294 104.723C0.0305106 104.239 0.418782 103.862 0.891623 103.835L1.00212 103.835L6.10919 104.139C6.32234 104.152 6.53352 104.092 6.70836 103.97C7.10322 103.693 7.22195 103.169 7.00203 102.754L6.93995 102.652L1.39085 94.7361C1.1274 94.3603 1.17425 93.856 1.48604 93.5349L1.57761 93.4521L12.9413 84.4393C13.1724 84.256 13.4736 84.1924 13.7555 84.2619ZM398.812 203.596L399.706 206.937C399.834 207.416 399.57 207.913 399.102 208.076L397.45 208.648C397.239 208.721 397.009 208.717 396.8 208.636L391.972 206.774C391.485 206.585 391.242 206.038 391.43 205.551C391.494 205.387 391.601 205.244 391.74 205.138L393.845 203.538C393.977 203.438 394.133 203.374 394.297 203.353L397.777 202.903C398.247 202.842 398.689 203.138 398.812 203.596ZM117.33 198.066L117.44 198.113L122.108 200.447C122.393 200.59 122.584 200.864 122.623 201.175L122.631 201.293V203.043C122.631 203.529 122.265 203.928 121.795 203.983L121.685 203.989H117.017C116.532 203.989 116.132 203.624 116.077 203.154L116.071 203.043V198.959C116.071 198.812 116.105 198.667 116.171 198.536C116.386 198.105 116.887 197.91 117.33 198.066ZM391.796 182.115L391.916 182.154L392.054 182.209C392.432 182.36 392.651 182.748 392.597 183.142L392.575 183.25L391.507 187.226C391.414 187.576 391.119 187.83 390.768 187.877L390.649 187.885H390.59C390.254 187.885 389.946 187.707 389.777 187.423L389.721 187.312L388.852 185.286C388.718 184.973 388.763 184.615 388.964 184.347L389.046 184.251L390.89 182.37C391.127 182.128 391.473 182.034 391.796 182.115ZM414.595 160.66L414.716 160.703L416.393 161.431C416.823 161.617 417.047 162.086 416.934 162.53L416.899 162.64L414.25 169.483C414.186 169.648 414.078 169.791 413.938 169.897L413.828 169.968L407.775 173.334C407.67 173.393 407.555 173.43 407.436 173.446L407.316 173.453H405.5C405.115 173.453 404.773 173.686 404.627 174.034L404.59 174.142L403.441 178.217C403.417 178.301 403.381 178.382 403.335 178.456L403.259 178.563L401.752 180.384C401.598 180.571 401.379 180.69 401.143 180.72L401.023 180.727H399.09C398.605 180.727 398.205 180.362 398.15 179.892L398.144 179.782V178.771C398.144 178.577 398.204 178.388 398.314 178.23L398.386 178.139L401.348 174.84C401.401 174.781 401.446 174.716 401.483 174.646L401.531 174.537L402.37 172.28C402.402 172.195 402.445 172.114 402.5 172.042L402.589 171.939L413.672 160.901C413.916 160.658 414.27 160.569 414.595 160.66ZM420.04 156.165C420.319 155.873 420.754 155.79 421.121 155.96L423.076 156.864C423.488 157.055 423.707 157.512 423.596 157.953L423.149 159.732C423.043 160.153 422.665 160.448 422.232 160.448H419C418.756 160.448 418.52 160.353 418.344 160.183L417.906 159.761C417.531 159.4 417.518 158.803 417.878 158.427L420.04 156.165ZM220.432 114.399L220.523 114.468L221.526 115.325C221.706 115.479 221.821 115.694 221.85 115.926L221.857 116.044V119.773C221.857 119.887 221.877 119.999 221.917 120.104L221.962 120.207L224.386 124.903L224.423 124.983L224.452 125.067L226.356 131.463C226.373 131.521 226.385 131.581 226.391 131.642L226.395 131.733V134.204C226.395 134.632 226.108 135.002 225.704 135.115L225.591 135.139L220.806 135.864C220.359 135.931 219.933 135.674 219.779 135.26L219.746 135.154L219.296 133.323C219.238 133.088 219.273 132.841 219.39 132.633L219.456 132.532L221.399 129.921C221.639 129.599 221.647 129.164 221.431 128.836L221.35 128.731L218.318 125.29C218.174 125.126 218.091 124.918 218.083 124.703L218.087 124.573L219.018 115.074C219.037 114.887 219.112 114.711 219.234 114.569C219.537 114.214 220.052 114.148 220.432 114.399ZM216.403 124.31L216.58 124.4C216.779 124.501 216.935 124.668 217.022 124.873L217.971 127.108C218.021 127.225 218.046 127.35 218.046 127.477V129.848C218.046 130.22 217.829 130.557 217.49 130.71L214.116 132.234C213.863 132.348 213.573 132.346 213.322 132.227L213.198 132.169C212.953 132.053 212.848 131.76 212.964 131.514C212.974 131.491 212.987 131.469 213.001 131.448L214.243 129.613C214.523 129.2 214.434 128.64 214.039 128.335L214.019 128.319C213.619 128.009 213.534 127.439 213.826 127.025L215.605 124.507C215.785 124.253 216.125 124.168 216.403 124.31ZM193.78 0C193.986 0 194.185 0.0673959 194.348 0.190133L194.442 0.27032L214.57 19.996C214.835 20.2558 214.921 20.6432 214.8 20.9863L214.752 21.0988L205.869 38.645C205.795 38.7905 205.761 38.9518 205.768 39.1134L205.781 39.2343L208.307 53.7566C208.322 53.8442 208.325 53.9333 208.315 54.0213L208.292 54.1521L198.15 93.977C198.105 94.1539 198.01 94.3131 197.877 94.4361L197.771 94.5214L182.257 105.257C182.111 105.358 181.998 105.496 181.928 105.657L181.884 105.781L178.859 116.632C178.733 117.081 178.302 117.367 177.849 117.318L177.735 117.299L173.153 116.241C172.941 116.193 172.754 116.073 172.621 115.904L172.549 115.797L163.934 101.042C163.846 100.89 163.801 100.716 163.806 100.542L163.818 100.411L166.28 85.5125C166.3 85.3879 166.296 85.2608 166.267 85.1387L166.229 85.0186L158.65 65.3257C158.576 65.1327 158.441 64.9705 158.267 64.8624L158.158 64.8043L142.249 57.5762C142.112 57.514 141.993 57.4203 141.9 57.3035L141.835 57.2117L137.819 50.7021C137.667 50.456 137.637 50.1561 137.733 49.8878L137.782 49.775L156.336 13.466C156.48 13.1847 156.753 12.9962 157.062 12.9578L157.179 12.9505H170.393C170.629 12.9505 170.855 12.8623 171.027 12.7057L171.109 12.6217L181.693 0.328751C181.847 0.149852 182.061 0.0361056 182.292 0.00725768L182.409 0H193.78ZM122.384 74.8237C122.461 74.8237 122.538 74.8332 122.614 74.852L130.926 76.9341C131.079 76.9725 131.22 77.0485 131.336 77.1553L148.282 92.7324C148.649 93.0697 148.691 93.634 148.379 94.0222L146.65 96.1677C146.329 96.5657 146.383 97.1465 146.771 97.4792L153.664 103.389C153.999 103.677 154.091 104.158 153.884 104.549L149.351 113.136C149.117 113.579 148.579 113.763 148.123 113.556L137.867 108.901C137.391 108.685 137.181 108.125 137.397 107.649L137.411 107.619L141.15 100.084C141.348 99.6837 141.24 99.1996 140.891 98.9221L121.796 83.77C121.57 83.5906 121.438 83.3177 121.438 83.0291V75.7696C121.438 75.2472 121.861 74.8237 122.384 74.8237ZM213.755 104.381C214.139 104.381 214.481 104.612 214.627 104.959L214.665 105.067L215.462 107.859C215.569 108.233 215.436 108.629 215.135 108.864L215.04 108.929L209.26 112.407C208.971 112.582 208.613 112.587 208.321 112.428L208.215 112.361L204.719 109.81C204.51 109.657 204.374 109.427 204.339 109.174L204.33 109.046V105.326C204.33 104.841 204.696 104.442 205.166 104.387L205.276 104.381H213.755ZM80.2894 64.1043L80.4099 64.1631L94.1303 72.1091C94.3858 72.2571 94.5554 72.5144 94.5938 72.8025L94.6021 72.9277V78.3833C94.6021 78.8684 94.237 79.2682 93.7665 79.3228L93.6562 79.3292H83.1469C82.795 79.3292 82.4756 79.1342 82.3127 78.8292L82.2644 78.7236L80.0531 72.988C79.9264 72.6596 79.6296 72.4318 79.2864 72.3895L79.1705 72.3824H72.6467C72.3759 72.3824 72.1181 72.2663 71.9386 72.0636C71.6189 71.7026 71.6252 71.1655 71.9357 70.8126L72.0196 70.7284L79.3088 64.2735C79.5799 64.0335 79.9605 63.9717 80.2894 64.1043ZM105.075 63.4245L105.185 63.4504L109.643 64.7832C109.911 64.8635 110.128 65.058 110.239 65.3113L110.28 65.4233L111.787 70.5637C111.845 70.763 111.836 70.9749 111.763 71.1669L111.711 71.2795L108.364 77.4727C108.251 77.6827 108.063 77.8408 107.84 77.9175L107.725 77.9489L101.978 79.1485C101.528 79.2424 101.082 78.9997 100.911 78.5848L100.874 78.4776L99.4727 73.4725C99.4192 73.2816 99.4273 73.0798 99.4942 72.8953L99.5413 72.7869L104.071 63.926C104.262 63.5536 104.671 63.3544 105.075 63.4245ZM95.5613 52.7316L95.6735 52.794L100.42 55.8747C100.805 56.125 100.951 56.6116 100.78 57.0269L100.731 57.1291L96.8041 64.1649C96.7998 64.1726 96.7954 64.1802 96.7909 64.1877C96.5443 64.6021 96.0307 64.7595 95.6001 64.5711L95.4944 64.5168L89.5729 60.9928C89.3969 60.8881 89.2607 60.7297 89.183 60.5426L89.1436 60.427L88.2379 57.0796C88.1337 56.6944 88.2829 56.2901 88.601 56.063L88.7014 56.0004L94.709 52.7552C94.9754 52.6113 95.2919 52.6048 95.5613 52.7316ZM127.455 8.38629L146.399 10.4216C146.771 10.4615 147.084 10.7164 147.199 11.072L149.345 17.7349C149.423 17.9761 149.4 18.2385 149.283 18.4631L127.514 60.1032C127.293 60.5241 126.795 60.7165 126.349 60.5529L116.619 56.9823C116.25 56.8468 116.003 56.4967 115.999 56.1033L115.929 48.7907C115.926 48.4216 115.708 48.0882 115.371 47.9369L110.398 45.702C110.156 45.5936 109.972 45.3892 109.888 45.1383L105.461 31.8524C105.381 31.6138 105.4 31.3533 105.513 31.1286L111.94 18.3414C112.015 18.1912 112.129 18.0638 112.271 17.9724L126.84 8.53294C127.022 8.41488 127.239 8.3631 127.455 8.38629Z" fill="#E6ECF9"/>
<g filter="url(#filter0_d)">
<mask id="mask0" mask-type="alpha" maskUnits="userSpaceOnUse" x="94" y="91" width="117" height="117">
<path d="M152.196 207.672C184.337 207.672 210.392 181.642 210.392 149.532C210.392 117.423 184.337 91.3928 152.196 91.3928C120.055 91.3928 94 117.423 94 149.532C94 181.642 120.055 207.672 152.196 207.672Z" fill="white"/>
</mask>
<g mask="url(#mask0)">
<path d="M152.196 207.672C184.337 207.672 210.392 181.642 210.392 149.532C210.392 117.423 184.337 91.3928 152.196 91.3928C120.055 91.3928 94 117.423 94 149.532C94 181.642 120.055 207.672 152.196 207.672Z" fill="white"/>
<path fill-rule="evenodd" clip-rule="evenodd" d="M142.276 137.061L142.368 162.341C145.776 164.54 149.183 165.64 152.59 165.64C155.997 165.64 159.489 163.608 163.066 159.545L162.811 141.451L142.276 137.061Z" fill="#FFD0AF"/>
<path d="M143.159 140.228C146.463 148.742 150.807 152.998 156.192 152.998C161.578 152.998 164.078 150.359 163.695 145.079C162.326 146.705 159.979 147.518 156.654 147.518C151.605 147.518 147.107 145.088 143.159 140.228Z" fill="#FFD0AF"/>
<path d="M143.159 140.228C146.463 148.742 150.807 152.998 156.192 152.998C161.578 152.998 164.078 150.359 163.695 145.079C162.326 146.705 159.979 147.518 156.654 147.518C151.605 147.518 147.107 145.088 143.159 140.228Z" fill="black" fill-opacity="0.1"/>
<path fill-rule="evenodd" clip-rule="evenodd" d="M154.529 102.895C165.675 102.895 170.959 109.004 170.38 121.221L170.359 121.631L170.344 121.902C171.962 121.256 172.962 121.53 173.345 122.724C174.231 125.487 172.519 131.756 170.374 133.799C170.143 134.019 169.906 134.215 169.663 134.387L169.517 137.045C169.073 145.798 166 150.174 160.299 150.174C154.716 150.174 148.871 147.069 142.764 140.859L142.373 140.459L141.794 137.306C140.054 137.632 138.518 137.16 137.186 135.892C135.042 133.849 132.959 127.468 133.845 124.704C134.392 122.997 136.309 123.203 139.595 125.322L139.279 123.602C138.175 109.798 143.259 102.895 154.529 102.895Z" fill="#FFD0AF"/>
<path fill-rule="evenodd" clip-rule="evenodd" d="M139.132 125.269L142.179 134.562C142.01 124.567 142.337 119.416 143.159 119.108C144.393 118.645 143.314 123.562 149.056 123.562C154.798 123.562 161.281 116.681 165.382 117.894C169.483 119.108 167.87 124.457 169.826 123.562C171.782 122.667 172.637 115.968 172.306 112.718C171.974 109.467 171.328 106.043 167.87 104.398C165.565 103.302 162.977 102.801 160.106 102.895C158.47 97.8061 154.786 96.012 149.056 97.5126C140.461 99.7636 134.509 109.545 134.509 115.781C134.509 119.938 136.05 123.1 139.132 125.269Z" fill="#01157C"/>
<path fill-rule="evenodd" clip-rule="evenodd" d="M187.676 166.531C194.727 172.734 201.016 188.798 206.544 214.722L98 226.785C104.879 192.451 110.293 172.522 114.242 167C118.191 161.478 127.503 158.717 142.179 158.717C145.574 162.666 149.216 164.641 153.105 164.641C156.993 164.641 160.314 162.666 163.066 158.717C172.421 157.724 180.625 160.329 187.676 166.531Z" fill="#01157C"/>
</g>
<path fill-rule="evenodd" clip-rule="evenodd" d="M135 204.927C136.675 201.163 138.557 198.119 140.646 195.795C142.736 193.47 145.8 192.125 149.838 191.759L168.613 202.2L203.995 165.031C204.564 159.696 205.226 155.574 205.981 152.664C207.112 148.299 211.561 139.959 212.308 138.696C212.807 137.855 214.123 137.289 216.259 137L214.851 151.838C215.79 155.71 216.259 158.495 216.259 160.195C216.259 161.894 214.621 164.581 211.345 168.255C191.712 200.715 178.704 217.984 172.322 220.062C165.939 222.14 153.498 217.095 135 204.927Z" fill="#FFD0AF"/>
</g>
<g filter="url(#filter1_d)">
<mask id="mask1" mask-type="alpha" maskUnits="userSpaceOnUse" x="282" y="85" width="115" height="114">
<path d="M339.585 198.47C370.852 198.47 396.199 173.173 396.199 141.968C396.199 110.763 370.852 85.4661 339.585 85.4661C308.319 85.4661 282.972 110.763 282.972 141.968C282.972 173.173 308.319 198.47 339.585 198.47Z" fill="white"/>
</mask>
<g mask="url(#mask1)">
<path d="M339.585 198.47C370.852 198.47 396.199 173.173 396.199 141.968C396.199 110.763 370.852 85.4661 339.585 85.4661C308.319 85.4661 282.972 110.763 282.972 141.968C282.972 173.173 308.319 198.47 339.585 198.47Z" fill="white"/>
<path fill-rule="evenodd" clip-rule="evenodd" d="M355.033 126.127L354.952 143.266C357.507 144.898 359.367 146.398 360.533 147.765C360.533 149.739 354.952 156.533 341.366 154.342C327.78 152.15 329.887 147.686 330.217 146.357C331.621 145.464 333.858 144.797 336.928 144.354V129.999L355.033 126.127Z" fill="#D68656"/>
<path d="M354.295 129.841C350.807 137.615 346.688 141.502 341.94 141.502C337.193 141.502 334.988 139.173 335.326 134.515C336.533 135.95 338.602 136.667 341.534 136.667C345.985 136.667 350.239 134.392 354.295 129.841Z" fill="#D68656"/>
<path d="M354.295 129.841C350.807 137.615 346.688 141.502 341.94 141.502C337.193 141.502 334.988 139.173 335.326 134.515C336.533 135.95 338.602 136.667 341.534 136.667C345.985 136.667 350.239 134.392 354.295 129.841Z" fill="black" fill-opacity="0.1"/>
<path fill-rule="evenodd" clip-rule="evenodd" d="M344.012 99.8564C334.206 99.8564 329.617 103.965 330.246 112.182L330.274 112.513L330.287 112.752C328.86 112.183 327.979 112.425 327.641 113.478C326.86 115.916 328.369 121.446 330.26 123.248C330.464 123.443 330.673 123.616 330.888 123.768L331.016 126.112C331.408 133.834 334.117 137.695 339.144 137.695C344.056 137.695 349.199 134.967 354.572 129.509L354.948 129.124L355.459 126.342C356.993 126.63 358.346 126.214 359.521 125.095C361.412 123.293 363.248 117.663 362.467 115.225C361.985 113.719 360.295 113.901 357.398 115.77L357.676 114.253C358.503 104.655 353.948 99.8564 344.012 99.8564Z" fill="#D68656"/>
<path fill-rule="evenodd" clip-rule="evenodd" d="M330.189 112.452L330.829 109.165C331.422 111.244 332.973 112.613 335.483 113.269C337.993 113.926 341.536 112.809 346.112 109.919C348.158 110.537 349.424 110.922 349.909 111.074C352.204 111.791 352.765 113.663 353.045 116.84C353.325 120.017 353.045 125.216 349.909 127.802C346.772 130.388 341.866 130.704 337.715 130.704C334.947 130.704 332.725 129.28 331.047 126.43L330.25 130.704C330.185 136.747 332.987 139.908 338.654 140.187C343.98 140.449 349.203 137.123 353.726 131.245C354.533 130.195 355.219 128.59 355.782 126.43C355.681 122.106 355.951 119.116 356.59 117.461C357.23 115.805 358.544 114.724 360.533 114.217C362.152 109.308 361.911 105.514 359.811 102.836C356.66 98.8176 353.045 100.799 349.909 98.8176C346.772 96.8363 343.765 91.3069 334.662 93.8856C328.593 95.6047 327.102 101.794 330.189 112.452Z" fill="#01157C"/>
<mask id="mask2" mask-type="alpha" maskUnits="userSpaceOnUse" x="297" y="144" width="96" height="95">
<path d="M333.565 144.996C329.396 148.616 331.292 151.131 339.251 152.54C347.21 153.949 353.755 151.845 358.885 146.227C363.521 147.17 366.832 147.991 368.82 148.69C374.386 150.649 380.054 153.403 383.319 156.951C388.332 162.401 391.253 170.089 392.084 180.017L374.352 188.099C375.994 193.645 376.814 200.025 376.814 207.239C376.814 214.453 375.994 224.862 374.352 238.467L305.881 229.016L312.693 194.728L314.038 187.96L297.827 178.566C303.226 162.565 307.789 153.333 311.515 150.872C315.241 148.411 322.591 146.452 333.565 144.996Z" fill="white"/>
</mask>
<g mask="url(#mask2)">
<path d="M333.565 144.996C329.396 148.616 331.292 151.131 339.251 152.54C347.21 153.949 353.755 151.845 358.885 146.227C363.521 147.17 366.832 147.991 368.82 148.69C374.386 150.649 380.054 153.403 383.319 156.951C388.332 162.401 391.253 170.089 392.084 180.017L374.352 188.099C375.994 193.645 376.814 200.025 376.814 207.239C376.814 214.453 375.994 224.862 374.352 238.467L305.881 229.016L312.693 194.728L314.038 187.96L297.827 178.566C303.226 162.565 307.789 153.333 311.515 150.872C315.241 148.411 322.591 146.452 333.565 144.996Z" fill="#FFDD25"/>
</g>
<path fill-rule="evenodd" clip-rule="evenodd" d="M374.352 188.099L392.084 180.017C393.899 201.582 392.982 214.29 389.332 218.14C385.683 221.991 367.46 226.039 334.662 230.285L333.073 219.358L375.085 206.271L374.352 188.099Z" fill="#FFE0B5"/>
<path d="M329.774 146.126C327.105 151.246 330.598 154.467 339.722 155.682C348.724 156.881 355.812 154.345 360.921 148.081C361.095 147.868 361.063 147.553 360.849 147.378C360.636 147.203 360.321 147.235 360.146 147.449C355.265 153.433 348.523 155.845 339.854 154.691C331.308 153.553 328.419 150.888 330.661 146.588C330.788 146.343 330.693 146.041 330.448 145.913C330.203 145.786 329.901 145.881 329.774 146.126Z" fill="#DCAE5E"/>
<path d="M374.553 186.082L390.625 179.024C390.878 178.913 390.993 178.618 390.882 178.365C390.771 178.112 390.476 177.997 390.223 178.108L374.151 185.166C373.899 185.277 373.784 185.572 373.895 185.825C374.006 186.078 374.301 186.193 374.553 186.082Z" fill="#DCAE5E"/>
<path d="M300.239 177.232L313.245 184.93C313.483 185.071 313.79 184.992 313.93 184.755C314.071 184.517 313.992 184.21 313.755 184.07L300.749 176.371C300.511 176.231 300.205 176.309 300.064 176.547C299.923 176.784 300.002 177.091 300.239 177.232Z" fill="#DCAE5E"/>
</g>
<path fill-rule="evenodd" clip-rule="evenodd" d="M261.153 154.694C260.691 153.488 261.275 149.532 262.904 142.825C261.839 138.162 261.485 135.01 261.844 133.37C262.203 131.73 262.771 130.606 263.548 130C266.714 135.717 268.545 139.992 269.041 142.825C269.537 145.657 269.537 148.984 269.041 152.803L297 180.651L297.782 178.377L313.817 187.755C309.27 195.562 304.635 200.466 299.912 202.466C295.189 204.466 283.067 189.685 263.548 158.123C262.412 157.043 261.614 155.9 261.153 154.694Z" fill="#D68656"/>
</g>
<path d="M225.022 118.064L233.468 130.855C233.696 131.201 234.161 131.296 234.507 131.068C234.852 130.839 234.948 130.374 234.719 130.029L226.274 117.238C226.046 116.892 225.58 116.797 225.235 117.025C224.889 117.254 224.794 117.719 225.022 118.064Z" fill="#075AFF"/>
<path d="M226.488 128.656L230.715 132.738C231.013 133.025 231.487 133.017 231.775 132.719C232.063 132.421 232.055 131.946 231.757 131.659L227.53 127.577C227.232 127.289 226.757 127.297 226.47 127.595C226.182 127.893 226.19 128.368 226.488 128.656Z" fill="#075AFF"/>
<path d="M222.479 124.976L224.271 126.709C224.568 126.997 225.043 126.989 225.331 126.691C225.619 126.394 225.611 125.919 225.313 125.631L223.521 123.898C223.224 123.61 222.749 123.618 222.461 123.916C222.173 124.213 222.181 124.688 222.479 124.976Z" fill="#075AFF"/>
<path d="M238.618 113.072L240.08 128.189C240.12 128.601 240.487 128.903 240.899 128.863C241.311 128.823 241.613 128.456 241.573 128.044L240.111 112.928C240.071 112.515 239.704 112.214 239.292 112.253C238.88 112.293 238.578 112.66 238.618 113.072Z" fill="#075AFF"/>
<path d="M253.236 115.039L247.955 127.83C247.797 128.213 247.98 128.651 248.362 128.81C248.745 128.968 249.184 128.785 249.342 128.402L254.622 115.612C254.78 115.229 254.598 114.79 254.215 114.632C253.832 114.474 253.394 114.657 253.236 115.039Z" fill="#075AFF"/>
<path d="M252.483 129.273L257.698 123.6C257.978 123.295 257.958 122.82 257.653 122.54C257.348 122.26 256.873 122.28 256.593 122.585L251.379 128.258C251.099 128.563 251.119 129.037 251.424 129.318C251.729 129.598 252.203 129.578 252.483 129.273Z" fill="#075AFF"/>
<path d="M244.395 128.016L245.395 117.051C245.432 116.638 245.129 116.273 244.716 116.236C244.304 116.198 243.939 116.502 243.901 116.914L242.901 127.88C242.863 128.292 243.167 128.657 243.58 128.695C243.992 128.732 244.357 128.428 244.395 128.016Z" fill="#075AFF"/>
<path d="M245.719 113.927L245.997 110.819C246.034 110.407 245.73 110.042 245.317 110.006C244.904 109.969 244.54 110.273 244.503 110.686L244.225 113.793C244.188 114.206 244.492 114.57 244.905 114.607C245.318 114.644 245.682 114.34 245.719 113.927Z" fill="#075AFF"/>
<path d="M143.829 237.003L146.495 232.006H147.753L144.417 238.124V242H143.241V238.179L139.912 232.006H141.184L143.829 237.003ZM154.726 238.247C154.726 239.468 154.418 240.422 153.803 241.108C153.187 241.794 152.338 242.137 151.253 242.137C150.583 242.137 149.988 241.979 149.469 241.665C148.949 241.351 148.548 240.899 148.266 240.312C147.983 239.724 147.842 239.035 147.842 238.247C147.842 237.026 148.147 236.074 148.758 235.393C149.368 234.712 150.216 234.371 151.301 234.371C152.349 234.371 153.182 234.72 153.799 235.417C154.417 236.114 154.726 237.058 154.726 238.247ZM149.018 238.247C149.018 239.204 149.209 239.933 149.592 240.435C149.975 240.936 150.537 241.187 151.28 241.187C152.023 241.187 152.587 240.937 152.972 240.438C153.357 239.939 153.55 239.209 153.55 238.247C153.55 237.295 153.357 236.571 152.972 236.077C152.587 235.582 152.019 235.335 151.267 235.335C150.524 235.335 149.963 235.579 149.585 236.066C149.207 236.554 149.018 237.281 149.018 238.247ZM157.781 234.508V239.368C157.781 239.979 157.92 240.435 158.198 240.735C158.476 241.036 158.911 241.187 159.504 241.187C160.288 241.187 160.861 240.972 161.223 240.544C161.585 240.116 161.767 239.416 161.767 238.445V234.508H162.901V242H161.965L161.801 240.995H161.739C161.507 241.364 161.184 241.647 160.772 241.843C160.36 242.039 159.889 242.137 159.36 242.137C158.449 242.137 157.766 241.92 157.313 241.487C156.86 241.054 156.633 240.362 156.633 239.409V234.508H157.781Z" fill="#010F57"/>
<path d="M320.18 223L316.789 214.141H316.734C316.798 214.842 316.83 215.676 316.83 216.643V223H315.757V213.006H317.507L320.672 221.25H320.727L323.919 213.006H325.655V223H324.493V216.561C324.493 215.822 324.525 215.02 324.589 214.154H324.534L321.116 223H320.18ZM331.397 223.137C330.29 223.137 329.415 222.799 328.772 222.125C328.134 221.451 327.815 220.514 327.815 219.315C327.815 218.108 328.112 217.148 328.704 216.438C329.301 215.727 330.101 215.371 331.104 215.371C332.042 215.371 332.785 215.681 333.332 216.301C333.879 216.916 334.152 217.729 334.152 218.741V219.459H328.991C329.014 220.339 329.235 221.006 329.654 221.462C330.078 221.918 330.673 222.146 331.438 222.146C332.245 222.146 333.043 221.977 333.831 221.64V222.651C333.43 222.825 333.049 222.948 332.689 223.021C332.334 223.098 331.903 223.137 331.397 223.137ZM331.09 216.321C330.488 216.321 330.007 216.517 329.647 216.909C329.292 217.301 329.082 217.843 329.019 218.536H332.936C332.936 217.821 332.776 217.274 332.457 216.896C332.138 216.513 331.682 216.321 331.09 216.321ZM341.221 223V218.153C341.221 217.543 341.082 217.087 340.804 216.786C340.526 216.485 340.09 216.335 339.498 216.335C338.714 216.335 338.14 216.547 337.775 216.971C337.411 217.395 337.229 218.094 337.229 219.069V223H336.094V215.508H337.017L337.201 216.533H337.256C337.488 216.164 337.814 215.879 338.233 215.679C338.653 215.474 339.12 215.371 339.635 215.371C340.537 215.371 341.216 215.59 341.672 216.027C342.128 216.46 342.355 217.155 342.355 218.112V223H341.221ZM347.113 222.2C347.314 222.2 347.507 222.187 347.694 222.159C347.881 222.127 348.029 222.095 348.139 222.063V222.932C348.016 222.991 347.833 223.039 347.592 223.075C347.355 223.116 347.141 223.137 346.949 223.137C345.5 223.137 344.775 222.373 344.775 220.847V216.39H343.702V215.843L344.775 215.371L345.254 213.771H345.91V215.508H348.084V216.39H345.91V220.799C345.91 221.25 346.017 221.596 346.231 221.838C346.446 222.079 346.74 222.2 347.113 222.2ZM356.109 219.247C356.109 220.468 355.802 221.423 355.187 222.111C354.571 222.795 353.721 223.137 352.637 223.137C351.967 223.137 351.372 222.979 350.853 222.665C350.333 222.351 349.932 221.899 349.649 221.312C349.367 220.724 349.226 220.035 349.226 219.247C349.226 218.026 349.531 217.076 350.142 216.396C350.752 215.713 351.6 215.371 352.685 215.371C353.733 215.371 354.564 215.72 355.18 216.417C355.799 217.114 356.109 218.058 356.109 219.247ZM350.401 219.247C350.401 220.204 350.593 220.933 350.976 221.435C351.358 221.936 351.921 222.187 352.664 222.187C353.407 222.187 353.97 221.938 354.353 221.441C354.74 220.94 354.934 220.209 354.934 219.247C354.934 218.295 354.74 217.572 354.353 217.08C353.97 216.583 353.402 216.335 352.65 216.335C351.908 216.335 351.347 216.579 350.969 217.066C350.59 217.554 350.401 218.281 350.401 219.247ZM361.523 215.371C361.856 215.371 362.155 215.398 362.419 215.453L362.262 216.506C361.952 216.438 361.678 216.403 361.441 216.403C360.835 216.403 360.316 216.649 359.883 217.142C359.454 217.634 359.24 218.247 359.24 218.98V223H358.105V215.508H359.042L359.172 216.896H359.227C359.505 216.408 359.84 216.032 360.231 215.768C360.623 215.503 361.054 215.371 361.523 215.371Z" fill="black"/>
</g>
<defs>
<filter id="filter0_d" x="84" y="86.3928" width="142.259" height="149.124" filterUnits="userSpaceOnUse" color-interpolation-filters="sRGB">
<feFlood flood-opacity="0" result="BackgroundImageFix"/>
<feColorMatrix in="SourceAlpha" type="matrix" values="0 0 0 0 0 0 0 0 0 0 0 0 0 0 0 0 0 0 127 0"/>
<feOffset dy="5"/>
<feGaussianBlur stdDeviation="5"/>
<feColorMatrix type="matrix" values="0 0 0 0 0.027451 0 0 0 0 0.352941 0 0 0 0 1 0 0 0 0.3 0"/>
<feBlend mode="normal" in2="BackgroundImageFix" result="effect1_dropShadow"/>
<feBlend mode="normal" in="SourceGraphic" in2="effect1_dropShadow" result="shape"/>
</filter>
<filter id="filter1_d" x="251" y="80.4661" width="155.199" height="137.179" filterUnits="userSpaceOnUse" color-interpolation-filters="sRGB">
<feFlood flood-opacity="0" result="BackgroundImageFix"/>
<feColorMatrix in="SourceAlpha" type="matrix" values="0 0 0 0 0 0 0 0 0 0 0 0 0 0 0 0 0 0 127 0"/>
<feOffset dy="5"/>
<feGaussianBlur stdDeviation="5"/>
<feColorMatrix type="matrix" values="0 0 0 0 0.027451 0 0 0 0 0.352941 0 0 0 0 1 0 0 0 0.3 0"/>
<feBlend mode="normal" in2="BackgroundImageFix" result="effect1_dropShadow"/>
<feBlend mode="normal" in="SourceGraphic" in2="effect1_dropShadow" result="shape"/>
</filter>
<clipPath id="clip0">
<rect width="480" height="310" fill="white"/>
</clipPath>
</defs>
</svg>
